<svg xmlns="http://www.w3.org/2000/svg" width="274.529" height="180.256" viewBox="0 0 274.529 180.256"><g id="Grupo_36" data-name="Grupo 36" transform="translate(-32.773 -230.324)"><path id="Caminho_5003" data-name="Caminho 5003" d="M41.049,309.338H45.04c5.391,0,7.846,4.458,7.846,8.6,0,4.346-2.427,8.732-7.846,8.732H41.049Zm4.079-7.656H32.773v32.644H45.128A15.672,15.672,0,0,0,56.614,329.8a16.616,16.616,0,0,0,4.547-11.911C61.161,309.837,55.654,301.682,45.128,301.682Z" fill="#fff"></path><path id="Caminho_5004" data-name="Caminho 5004" d="M83.9,312.947a4.024,4.024,0,0,1-1.09,2.929,3.6,3.6,0,0,1-2.635,1.048H74.371v-7.851h5.808a3.6,3.6,0,0,1,3.725,3.874m8.1.117c0-5.7-4.047-11.47-11.772-11.47-2.956-.03-5.891-.02-8.835-.01l-5.257.01v32.688h8.32V324.046h4.235l6.381,10.236h8.39v-2.025l-6.626-9.772A10.73,10.73,0,0,0,92,313.064Z" fill="#fff"></path><path id="Caminho_5005" data-name="Caminho 5005" d="M115.673,323.033c0,3.075-2.628,4.168-4.878,4.168-2.271,0-4.922-1.093-4.922-4.168V301.638h-8.32v21.527c0,7.943,6.865,11.559,13.242,11.559,7.718,0,13.109-4.753,13.109-11.559V301.638h-8.231Z" fill="#fff"></path><path id="Caminho_5006" data-name="Caminho 5006" d="M145.976,315.841,133.917,301.55h-3.663v32.776h8.32V319.084l6.557,8.2h1.646l6.557-8.2v15.242h8.32V301.55h-3.618Z" fill="#fff"></path><path id="Caminho_5007" data-name="Caminho 5007" d="M183.995,315.841l-12.06-14.292h-3.663v32.776h8.32V319.084l6.558,8.2H184.8l6.558-8.2v15.242h8.32V301.55h-3.619Z" fill="#fff"></path><path id="Caminho_5008" data-name="Caminho 5008" d="M221.261,327.113c-4.029,0-8.334-2.4-8.334-9.132,0-6.246,4.209-9.042,8.378-9.042,3.845,0,8.333,2.368,8.333,9.042,0,6.741-4.513,9.132-8.377,9.132m.044-25.963c-8.063,0-16.743,5.267-16.743,16.831,0,11.6,8.61,16.876,16.609,16.876,9.859,0,16.743-6.94,16.743-16.876C237.914,306.933,229.558,301.15,221.3,301.15Z" fill="#fff"></path><path id="Caminho_5009" data-name="Caminho 5009" d="M262.295,318.018l-16.223-16.513H242.8v32.82h8.276V317.81l16.357,16.6h3.18V301.638h-8.32Z" fill="#fff"></path><path id="Caminho_5010" data-name="Caminho 5010" d="M285.551,309.338h3.991c5.392,0,7.846,4.458,7.846,8.6,0,4.346-2.426,8.732-7.846,8.732h-3.991Zm4.08-7.656H277.275v32.644h12.356a15.672,15.672,0,0,0,11.485-4.522,16.617,16.617,0,0,0,4.548-11.911C305.664,309.837,300.156,301.682,289.631,301.682Z" fill="#fff"></path><path id="Caminho_5011" data-name="Caminho 5011" d="M155.47,257.7a70.6,70.6,0,0,1,17.427-10.92,89.224,89.224,0,0,1,10.057-3.754,78.731,78.731,0,0,0-22.827,10.661A57.528,57.528,0,0,0,135.2,290.572c-.347,1.736-.606,3.486-.791,5.244h1.844a56.493,56.493,0,0,1,2.079-11.631A54.819,54.819,0,0,1,155.47,257.7" fill="#fff"></path><path id="Caminho_5012" data-name="Caminho 5012" d="M212.668,239.386c.055.137.111.3.172.447l-.229.137s.114.015.31.044c.01.019.018.045.028.062a2.789,2.789,0,0,0,.629.758c.874.081,1.922.189,3.13.334.328.025.654.041.981.069.891.077,1.756.207,2.635.363.448.08.892.18,1.339.264.877.14,1.8.3,2.754.469,19.8,4.874,58.236,18.569,65.432,52.389q.117.551.224,1.094H307.3a75.321,75.321,0,0,0-17.289-33.526c-26.777-29.662-77.691-29.506-79.317-29.494-.166-.005-.333-.014-.5-.019.6,1.771,1.253,3.526,1.937,5.268q.264.672.535,1.341" fill="#fff"></path><path id="Caminho_5013" data-name="Caminho 5013" d="M134.178,276.865a67.318,67.318,0,0,0-6.746,18.951h2.839a65.069,65.069,0,0,1,22.4-39.66,79.364,79.364,0,0,1,18.543-11.673,104.619,104.619,0,0,1,12.778-4.815c.283-.11.578-.194.868-.29a96.285,96.285,0,0,0-22.475,9.214,71.012,71.012,0,0,0-28.208,28.273" fill="#fff"></path><path id="Caminho_5014" data-name="Caminho 5014" d="M293.56,341.651H264.327c-10.391,3.245-21.394,2.881-28.166,0H206.3a65.42,65.42,0,0,0,10.431,8.1,63.492,63.492,0,0,0,38.785,9.757c12.721-.958,25.391-5.727,34.815-14.475a47.011,47.011,0,0,0,3.3-3.383h-.074" fill="#fff"></path><path id="Caminho_5015" data-name="Caminho 5015" d="M173.049,273.069a22.946,22.946,0,0,1,4.053,4.589,81.437,81.437,0,0,1,4.545,6.855,52.2,52.2,0,0,1,3.146,6.965c.085.215.123.137.2.059a.223.223,0,0,1,.269-.059,3.016,3.016,0,0,0,.9,0c3.614-.044,7.229-.022,10.845,0s7.238.044,10.858,0c.831-.01,1.663-.005,2.5,0s1.672.01,2.508,0c.352,0,.717.011,1.084.027a11.046,11.046,0,0,0,1.928-.027.835.835,0,0,1,.159.01.494.494,0,0,0,.263-.01c.058-.044.088-.01.107.025s.031.087.048-.025c.062-.415.139-2.474.225-2.885a24.137,24.137,0,0,1,.642-2.39,35.515,35.515,0,0,1,4.25-8.475c.732-1.114,1.5-2.2,2.275-3.287.318-.444.634-.888.944-1.337a2.715,2.715,0,0,0,.408-.6c.014-.054.148-.16.141-.215-.011-.078-.48-.436-.543-.494a51.613,51.613,0,0,1-5.6-6.179,90.316,90.316,0,0,1-8.973-14.426,134.879,134.879,0,0,1-8.566-20.725c-.015-.046-.029-.092-.044-.138h-.12c-1.517,5.11-16.048,31.8-28.455,42.745" fill="#fff"></path><path id="Caminho_5016" data-name="Caminho 5016" d="M124.143,295.816a75.639,75.639,0,0,1,5.03-14.488c8.067-17.384,22.693-30.955,40.36-39.138a120.771,120.771,0,0,1,15.438-5.9c1.279-.392,1.8-.607,1.584-.607a12.065,12.065,0,0,0-1.781.4,119.861,119.861,0,0,0-20.13,7.411c-17.666,8.389-32.293,22.3-40.359,40.116a79.144,79.144,0,0,0-4.37,12.2Z" fill="#fff"></path><path id="Caminho_5017" data-name="Caminho 5017" d="M142.914,285.614a46.849,46.849,0,0,1,15.354-26.375c7.847-6.872,17.559-11.437,27.671-14.048-10.159,2.415-20,6.792-28.071,13.586a47.781,47.781,0,0,0-16.151,26.593,50.26,50.26,0,0,0-1.081,10.446h1.43a48.968,48.968,0,0,1,.848-10.2" fill="#fff"></path><path id="Caminho_5018" data-name="Caminho 5018" d="M240.386,400.15c-1.191,0-2.39-.026-3.585-.059-1.092-.033-2.184-.081-3.283-.139a135.062,135.062,0,0,1-14.772-1.574,138.4,138.4,0,0,1-17.647-4.029q-6.187-1.854-12.059-4.254-2.47-1-4.879-2.1A113.943,113.943,0,0,1,154,368.2a82.015,82.015,0,0,1-20.764-26.552h5.878a84.174,84.174,0,0,0,5.011,7.816,98.851,98.851,0,0,0,20.236,20.342c1.746,1.335,3.526,2.654,5.364,3.9a113.6,113.6,0,0,0,15.389,8.75,127.375,127.375,0,0,0,16.541,6.367,134.343,134.343,0,0,0,18.026,4.213,148.565,148.565,0,0,0,15.47,1.445Z" fill="#fff"></path><path id="Caminho_5019" data-name="Caminho 5019" d="M218.463,376.44c-.919-.25-1.831-.515-2.743-.794a133.435,133.435,0,0,1-14.941-5.452,130.3,130.3,0,0,1-14.129-7.265A111.89,111.89,0,0,1,161.9,343.165c-.463-.5-.922-1-1.378-1.515h3.32a109.017,109.017,0,0,0,24.353,18.64,126.382,126.382,0,0,0,13.9,6.812c3.769,1.57,7.625,2.919,11.526,4.1Z" fill="#fff"></path><path id="Caminho_5020" data-name="Caminho 5020" d="M249.47,409.977q-6.59.6-13.393.6a143.41,143.41,0,0,1-47.868-8.055,119.163,119.163,0,0,1-38.162-21.8c-13.07-10.665-22.923-24.059-28.264-39.07h6.342c5.58,13.147,14.852,24.893,26.812,34.416,15.342,12.952,35.662,21.907,58.662,25.867a159.553,159.553,0,0,0,29.967,1.658Z" fill="#fff"></path><path id="Caminho_5021" data-name="Caminho 5021" d="M230.3,389.246a123.376,123.376,0,0,1-13.07-2.232,134.628,134.628,0,0,1-16.294-4.742q-5.67-2.058-11.07-4.6-2.261-1.057-4.463-2.206a111.928,111.928,0,0,1-27.46-19.779A78.846,78.846,0,0,1,145.9,341.65H150.9q1.444,1.951,2.993,3.824a101.887,101.887,0,0,0,19.886,18.077c1.691,1.187,3.411,2.346,5.172,3.452a118.438,118.438,0,0,0,14.651,7.779,127.68,127.68,0,0,0,15.589,5.695,124.883,124.883,0,0,0,16.375,3.647Z" fill="#fff"></path><path id="Caminho_5022" data-name="Caminho 5022" d="M104.76,286.763a4.1,4.1,0,0,1-.234,1.393,3.415,3.415,0,0,1-.678,1.147,3.2,3.2,0,0,1-1.073.776,3.476,3.476,0,0,1-1.443.284,3.3,3.3,0,0,1-1.418-.3,3.539,3.539,0,0,1-1.1-.8,3.5,3.5,0,0,1-.715-1.158,3.929,3.929,0,0,1-.247-1.394v-.049a4.075,4.075,0,0,1,.235-1.393,3.415,3.415,0,0,1,.678-1.147,3.184,3.184,0,0,1,1.072-.777,3.483,3.483,0,0,1,1.443-.284,3.32,3.32,0,0,1,1.406.3,3.506,3.506,0,0,1,1.824,1.961,3.9,3.9,0,0,1,.247,1.393Zm3.7-.05v-.049a6.623,6.623,0,0,0-.543-2.676,6.753,6.753,0,0,0-1.492-2.17,6.943,6.943,0,0,0-2.256-1.455,7.478,7.478,0,0,0-2.836-.53,7.382,7.382,0,0,0-2.86.543,7.132,7.132,0,0,0-2.269,1.479,6.823,6.823,0,0,0-1.5,2.183,6.619,6.619,0,0,0-.543,2.675v.05a6.619,6.619,0,0,0,.543,2.675,6.773,6.773,0,0,0,1.492,2.17,6.91,6.91,0,0,0,2.256,1.455,7.482,7.482,0,0,0,2.836.53,7.405,7.405,0,0,0,2.861-.542,7.13,7.13,0,0,0,2.268-1.48,6.8,6.8,0,0,0,1.5-2.182A6.62,6.62,0,0,0,108.459,286.713Zm-20.172,0a4.171,4.171,0,0,1-.258,1.513,3.594,3.594,0,0,1-.7,1.154,3.131,3.131,0,0,1-1.024.749,3.122,3.122,0,0,1-2.49,0,2.991,2.991,0,0,1-1.011-.749,3.667,3.667,0,0,1-.691-1.166,4.178,4.178,0,0,1-.259-1.5v-.049a4.169,4.169,0,0,1,.259-1.5A3.672,3.672,0,0,1,82.8,284a2.974,2.974,0,0,1,1.011-.748,3.122,3.122,0,0,1,2.49,0,3.113,3.113,0,0,1,1.024.748,3.571,3.571,0,0,1,.7,1.167,4.191,4.191,0,0,1,.258,1.5Zm3.749,0v-.049a7.861,7.861,0,0,0-.506-2.922,6.576,6.576,0,0,0-1.344-2.146,5.563,5.563,0,0,0-1.923-1.319,5.876,5.876,0,0,0-2.244-.444,4.625,4.625,0,0,0-2.454.6,5.9,5.9,0,0,0-1.664,1.529V280.08H78.152v17.163H81.9v-5.655a6.55,6.55,0,0,0,1.639,1.368,4.746,4.746,0,0,0,2.479.588,5.929,5.929,0,0,0,2.268-.444,5.427,5.427,0,0,0,1.911-1.319,6.688,6.688,0,0,0,1.332-2.146A7.854,7.854,0,0,0,92.036,286.713ZM74.8,293.3V280.08H71.05v7.356a2.834,2.834,0,0,1-.629,2,2.221,2.221,0,0,1-1.713.678,2.105,2.105,0,0,1-1.677-.678,2.953,2.953,0,0,1-.592-2V280.08H62.691v8.557a5.2,5.2,0,0,0,1.171,3.6,4.224,4.224,0,0,0,3.317,1.307A4.16,4.16,0,0,0,69.5,292.9a5.165,5.165,0,0,0,.85-.682,8.206,8.206,0,0,0,.7-.81v1.89Zm-14.352-9.543v-3.921a3.784,3.784,0,0,0-2.664.74,5.5,5.5,0,0,0-1.553,2.17V280.08H52.482V293.3H56.23v-4.882a4.99,4.99,0,0,1,1.073-3.527,3.861,3.861,0,0,1,2.947-1.134Zm-11.22,7.1v-7.5h-7.5v3.28h3.823v2.483a5.989,5.989,0,0,1-3.576,1.044,5.306,5.306,0,0,1-2.109-.407,4.974,4.974,0,0,1-1.652-1.151,5.172,5.172,0,0,1-1.085-1.743,6.074,6.074,0,0,1-.382-2.186v-.049a5.67,5.67,0,0,1,.382-2.088,5.264,5.264,0,0,1,2.639-2.869,4.415,4.415,0,0,1,1.936-.432,6.865,6.865,0,0,1,1.356.124,5.988,5.988,0,0,1,1.146.345,6.484,6.484,0,0,1,1.024.542,9.748,9.748,0,0,1,.986.74l2.392-2.885a11.414,11.414,0,0,0-1.381-1.011,8.182,8.182,0,0,0-1.529-.74,10.07,10.07,0,0,0-1.763-.456,12.705,12.705,0,0,0-2.108-.16,9.158,9.158,0,0,0-3.625.7,8.842,8.842,0,0,0-5.425,8.223v.05a9.288,9.288,0,0,0,.666,3.551,8.346,8.346,0,0,0,1.861,2.811,8.494,8.494,0,0,0,2.861,1.849,9.839,9.839,0,0,0,3.686.666,10.43,10.43,0,0,0,4.2-.8A12.643,12.643,0,0,0,49.227,290.856Z" fill="#fff"></path></g></svg>